<svg xmlns="http://www.w3.org/2000/svg" viewBox="0 0 120 120" fill="none">
  <defs>
    <linearGradient id="shieldGrad" x1="0%" y1="0%" x2="100%" y2="100%">
      <stop offset="0%" style="stop-color:#00d4ff;stop-opacity:1" />
      <stop offset="100%" style="stop-color:#7b2ff7;stop-opacity:1" />
    </linearGradient>
  </defs>
  <path d="M60 10 L100 30 V60 C100 85 80 105 60 112 C40 105 20 85 20 60 V30 Z" fill="url(#shieldGrad)" opacity="0.15" stroke="url(#shieldGrad)" stroke-width="2.5"/>
  <path d="M60 25 L88 40 V60 C88 78 74 94 60 100 C46 94 32 78 32 60 V40 Z" fill="none" stroke="url(#shieldGrad)" stroke-width="1.5" opacity="0.4"/>
  <rect x="48" y="48" width="24" height="20" rx="3" fill="url(#shieldGrad)"/>
  <path d="M52 48 V42 C52 36 56 32 60 32 C64 32 68 36 68 42 V48" fill="none" stroke="url(#shieldGrad)" stroke-width="3" stroke-linecap="round"/>
  <circle cx="60" cy="58" r="2.5" fill="#0a0a1a"/>
  <line x1="60" y1="60" x2="60" y2="64" stroke="#0a0a1a" stroke-width="2" stroke-linecap="round"/>
</svg>
